<svg width="24" height="24" viewBox="0 0 24 24" fill="none" xmlns="http://www.w3.org/2000/svg">
<g clip-path="url(#clip0_292_3995)">
<path d="M8.88672 21.3335C9.71515 21.3335 10.3867 20.6619 10.3867 19.8335C10.3867 19.0051 9.71515 18.3335 8.88672 18.3335C8.05829 18.3335 7.38672 19.0051 7.38672 19.8335C7.38672 20.6619 8.05829 21.3335 8.88672 21.3335Z" fill="white"/>
<path d="M18 21.3335C18.8284 21.3335 19.5 20.6619 19.5 19.8335C19.5 19.0051 18.8284 18.3335 18 18.3335C17.1716 18.3335 16.5 19.0051 16.5 19.8335C16.5 20.6619 17.1716 21.3335 18 21.3335Z" fill="white"/>
<path d="M15.0466 4.66683C15.0162 4.4459 15.0006 4.22318 14.9999 4.00016C15.0006 3.77715 15.0162 3.55443 15.0466 3.3335H7.65991L8.09325 4.66683H15.0466Z" fill="white"/>
<path d="M20.0001 9.00015H19.7201L18.8867 12.6668H8.88674L5.84007 3.02015C5.80712 2.91779 5.74989 2.82492 5.67328 2.74947C5.59666 2.67401 5.50293 2.61821 5.40007 2.58682L2.66674 1.74682C2.58269 1.72099 2.49438 1.71197 2.40685 1.72028C2.31932 1.72858 2.23428 1.75404 2.15659 1.79521C1.99968 1.87835 1.88223 2.02042 1.83007 2.19015C1.77791 2.35989 1.79532 2.5434 1.87846 2.7003C1.9616 2.85721 2.10367 2.97466 2.27341 3.02682L4.66674 3.76015L7.72674 13.4268L6.63341 14.3202L6.54674 14.4068C6.2763 14.7185 6.12301 15.1147 6.11327 15.5272C6.10354 15.9397 6.23797 16.3427 6.49341 16.6668C6.67511 16.8878 6.90601 17.0632 7.16763 17.1789C7.42925 17.2947 7.71434 17.3476 8.00007 17.3335H19.1267C19.3036 17.3335 19.4731 17.2632 19.5981 17.1382C19.7232 17.0132 19.7934 16.8436 19.7934 16.6668C19.7934 16.49 19.7232 16.3204 19.5981 16.1954C19.4731 16.0704 19.3036 16.0002 19.1267 16.0002H7.89341C7.81664 15.9975 7.74184 15.9752 7.67625 15.9352C7.61065 15.8952 7.55647 15.839 7.51894 15.772C7.48141 15.705 7.46179 15.6294 7.46199 15.5526C7.46219 15.4758 7.4822 15.4003 7.52007 15.3335L9.12674 14.0002H19.4201C19.5742 14.0039 19.7248 13.9542 19.8464 13.8594C19.9679 13.7645 20.0529 13.6305 20.0867 13.4802L21.1334 8.87349C20.7617 8.95879 20.3814 9.00129 20.0001 9.00015Z" fill="white"/>
<path d="M20.0001 7.33317C21.841 7.33317 23.3334 5.84079 23.3334 3.99984C23.3334 2.15889 21.841 0.666504 20.0001 0.666504C18.1591 0.666504 16.6667 2.15889 16.6667 3.99984C16.6667 5.84079 18.1591 7.33317 20.0001 7.33317Z" fill="#F08000"/>
</g>
<defs>
<clipPath id="clip0_292_3995">
<rect width="24" height="24" fill="white"/>
</clipPath>
</defs>
</svg>
