<svg width="21" height="22" viewBox="0 0 21 22" fill="none" xmlns="http://www.w3.org/2000/svg">
<g clip-path="url(#clip0_333_7606)">
<path d="M5.01094 10.4086H15.656V11.5914H5.01094V10.4086ZM3.82815 0.946289H16.8388C17.7799 0.946289 18.6825 1.32013 19.3479 1.98558C20.0134 2.65103 20.3872 3.55357 20.3872 4.49466V17.5053C20.3872 18.4464 20.0134 19.349 19.3479 20.0144C18.6825 20.6799 17.7799 21.0537 16.8388 21.0537H3.82815C2.88707 21.0537 1.98453 20.6799 1.31908 20.0144C0.65363 19.349 0.279785 18.4464 0.279785 17.5053V4.49466C0.279785 3.55357 0.65363 2.65103 1.31908 1.98558C1.98453 1.32013 2.88707 0.946289 3.82815 0.946289ZM3.82815 2.12908C3.20076 2.12908 2.59907 2.37831 2.15544 2.82194C1.7118 3.26557 1.46257 3.86727 1.46257 4.49466V17.5053C1.46257 18.1327 1.7118 18.7344 2.15544 19.1781C2.59907 19.6217 3.20076 19.8709 3.82815 19.8709H16.8388C17.4662 19.8709 18.0679 19.6217 18.5116 19.1781C18.9552 18.7344 19.2044 18.1327 19.2044 17.5053V4.49466C19.2044 3.86727 18.9552 3.26557 18.5116 2.82194C18.0679 2.37831 17.4662 2.12908 16.8388 2.12908H3.82815Z" fill="black"/>
</g>
<defs>
<clipPath id="clip0_333_7606">
<rect width="20.1074" height="20.1074" fill="white" transform="translate(0.279785 0.946289)"/>
</clipPath>
</defs>
</svg>
