<svg width="21" height="22" viewBox="0 0 21 22" fill="none" xmlns="http://www.w3.org/2000/svg">
<g clip-path="url(#clip0_333_7610)">
<path d="M5.34395 10.4086H10.0751V5.67745H11.2579V10.4086H15.9891V11.5914H11.2579V16.3226H10.0751V11.5914H5.34395V10.4086ZM4.16116 0.946289H17.1718C18.1129 0.946289 19.0155 1.32013 19.6809 1.98558C20.3464 2.65103 20.7202 3.55357 20.7202 4.49466V17.5053C20.7202 18.4464 20.3464 19.349 19.6809 20.0144C19.0155 20.6799 18.1129 21.0537 17.1718 21.0537H4.16116C3.22008 21.0537 2.31753 20.6799 1.65209 20.0144C0.986638 19.349 0.612793 18.4464 0.612793 17.5053V4.49466C0.612793 3.55357 0.986638 2.65103 1.65209 1.98558C2.31753 1.32013 3.22008 0.946289 4.16116 0.946289ZM4.16116 2.12908C3.53377 2.12908 2.93208 2.37831 2.48844 2.82194C2.04481 3.26557 1.79558 3.86727 1.79558 4.49466V17.5053C1.79558 18.1327 2.04481 18.7344 2.48844 19.1781C2.93208 19.6217 3.53377 19.8709 4.16116 19.8709H17.1718C17.7992 19.8709 18.4009 19.6217 18.8446 19.1781C19.2882 18.7344 19.5374 18.1327 19.5374 17.5053V4.49466C19.5374 3.86727 19.2882 3.26557 18.8446 2.82194C18.4009 2.37831 17.7992 2.12908 17.1718 2.12908H4.16116Z" fill="#C80001"/>
</g>
<defs>
<clipPath id="clip0_333_7610">
<rect width="20.1074" height="20.1074" fill="white" transform="translate(0.612793 0.946289)"/>
</clipPath>
</defs>
</svg>
